# File created by Blade
# Date/Time:  Wed Jan 21 15:23:53 2015
#---------------------------------------------------------
:version 1.10
:name HOM
:units
  mass 1.0
  length 1.000000
  angle deg
:documentation
     Acclaim Skeleton File
:root
   axis xyz
   order TX TY TZ RX RY RZ
   position 0.000000 0.000000 0.000000
   orientation 0 0 0
:bonedata
   begin
      id 1
      name Spine_dum
      direction 0.000000 1.000000 0.000000
      length 7.067664
      axis 0.0 0.0 0.0 xyz
   end
   begin
      id 2
      name LeftUpLeg_dum
      direction 1.000000 0.000000 0.000000
      length 4.013002
      axis 0.0 0.0 0.0 xyz
   end
   begin
      id 3
      name RightUpLeg_dum
      direction -1.000000 0.000000 0.000000
      length 4.013002
      axis 0.0 0.0 0.0 xyz
   end
   begin
      id 4
      name Spine
      direction 0.000000 1.000000 0.000000
      length 0.000000
      axis 0.0 0.0 0.0 xyz
      dof rx ry rz
   end
   begin
      id 5
      name Spine_dum1
      direction 0.000000 1.000000 0.000000
      length 15.039886
      axis 0.0 0.0 0.0 xyz
   end
   begin
      id 6
      name Spine_dum2
      direction 0.000000 1.000000 0.000000
      length 10.530368
      axis 0.0 0.0 0.0 xyz
   end
   begin
      id 7
      name Spine_dum3
      direction 0.000000 1.000000 0.000000
      length 10.530368
      axis 0.0 0.0 0.0 xyz
   end
   begin
      id 8
      name Head
      direction 0.000000 1.000000 0.000000
      length 4.527550
      axis 0.0 0.0 0.0 xyz
      dof rx ry rz
   end
   begin
      id 9
      name LeftShoulder
      direction 1.000000 0.000000 0.000000
      length 7.028855
      axis 0.0 0.0 -90.0 xyz
      dof rx ry rz
   end
   begin
      id 10
      name LeftArm
      direction 1.000000 0.000000 0.000000
      length 10.797705
      axis 0.0 0.0 -90.0 xyz
      dof rx ry rz
   end
   begin
      id 11
      name LeftForeArm
      direction 1.000000 0.000000 0.000000
      length 7.907442
      axis 0.0 0.0 -90.0 xyz
      dof ry rz rx
   end
   begin
      id 12
      name LeftHand
      direction 0.000000 0.000000 0.000000
      length 0.000000
      axis 0.0 0.0 -90.0 xyz
      dof rx ry rz
   end
   begin
      id 13
      name LeftHand_dum1
      direction 0.000000 0.000000 0.000000
      length 0.000000
      axis 0.0 0.0 -90.0 xyz
   end
   begin
      id 14
      name LeftHand_dum2
      direction 1.000000 0.000000 0.000000
      length 3.937000
      axis 0.0 0.0 -90.0 xyz
   end
   begin
      id 15
      name LeftHandThumb1
      direction 0.000000 0.000000 1.000000
      length 3.937000
      axis 0.0 0.0 -90.0 xyz
      dof rx rz ry
   end
   begin
      id 16
      name RightShoulder
      direction -1.000000 0.000000 0.000000
      length 7.028855
      axis 0.0 0.0 90.0 xyz
      dof rx ry rz
   end
   begin
      id 17
      name RightArm
      direction -1.000000 0.000000 0.000000
      length 10.797705
      axis 0.0 0.0 90.0 xyz
      dof rx ry rz
   end
   begin
      id 18
      name RightForeArm
      direction -1.000000 0.000000 0.000000
      length 7.907442
      axis 0.0 0.0 90.0 xyz
      dof ry rz rx
   end
   begin
      id 19
      name RightHand
      direction 0.000000 0.000000 0.000000
      length 0.000000
      axis 0.0 0.0 90.0 xyz
      dof rx ry rz
   end
   begin
      id 20
      name RightHand_dum1
      direction 0.000000 0.000000 0.000000
      length 0.000000
      axis 0.0 0.0 90.0 xyz
   end
   begin
      id 21
      name RightHand_dum2
      direction -1.000000 0.000000 0.000000
      length 3.937000
      axis 0.0 0.0 90.0 xyz
   end
   begin
      id 22
      name RightHandThumb1
      direction 0.000000 0.000000 1.000000
      length 3.937000
      axis 0.0 0.0 90.0 xyz
      dof rx rz ry
   end
   begin
      id 23
      name LeftUpLeg
      direction 0.000000 -1.000000 0.000000
      length 16.899758
      axis 0.0 0.0 0.0 xyz
      dof rx ry rz
   end
   begin
      id 24
      name LeftLeg
      direction 0.000000 -1.000000 0.000000
      length 17.389183
      axis 0.0 0.0 0.0 xyz
      dof rx ry rz
   end
   begin
      id 25
      name LeftFoot
      direction 0.000000 -0.258819 0.965926
      length 4.924528
      axis 15.0 0.0 0.0 xyz
      dof rx ry rz
   end
   begin
      id 26
      name LeftToeBase
      direction 0.000000 0.000000 1.000000
      length 2.952750
      axis 0.0 0.0 0.0 xyz
      dof rx ry rz
   end
   begin
      id 27
      name RightUpLeg
      direction 0.000000 -1.000000 0.000000
      length 16.899758
      axis 0.0 0.0 0.0 xyz
      dof rx ry rz
   end
   begin
      id 28
      name RightLeg
      direction 0.000000 -1.000000 0.000000
      length 17.389183
      axis 0.0 0.0 0.0 xyz
      dof rx ry rz
   end
   begin
      id 29
      name RightFoot
      direction 0.000000 -0.258819 0.965926
      length 4.924528
      axis 15.0 0.0 0.0 xyz
      dof rx ry rz
   end
   begin
      id 30
      name RightToeBase
      direction 0.000000 0.000000 1.000000
      length 2.952750
      axis 0.0 0.0 0.0 xyz
      dof rx ry rz
   end
:hierarchy
   begin
      root Spine_dum LeftUpLeg_dum RightUpLeg_dum
      Spine_dum Spine
      LeftUpLeg_dum LeftUpLeg
      RightUpLeg_dum RightUpLeg
      Spine Spine_dum1 Spine_dum2 Spine_dum3
      Spine_dum1 Head
      Spine_dum2 LeftShoulder
      Spine_dum3 RightShoulder
      LeftShoulder LeftArm
      LeftArm LeftForeArm
      LeftForeArm LeftHand
      LeftHand LeftHand_dum1 LeftHand_dum2
      LeftHand_dum1 LeftHandThumb1
      RightShoulder RightArm
      RightArm RightForeArm
      RightForeArm RightHand
      RightHand RightHand_dum1 RightHand_dum2
      RightHand_dum1 RightHandThumb1
      LeftUpLeg LeftLeg
      LeftLeg LeftFoot
      LeftFoot LeftToeBase
      RightUpLeg RightLeg
      RightLeg RightFoot
      RightFoot RightToeBase
   end

# File created by Blade
# Date/Time:  Wed Jan 21 15:23:43 2015
# Frame Rate: 120.000 fps
#------------------------------------------------------
:FULLY-SPECIFIED
:DEGREES
222
root 25.008168 32.712131 -19.654905 -170.707016 4.654771 -182.744376
Spine -0.474795 -0.345489 0.116800
Head -7.906724 2.635721 -5.621336
LeftShoulder -8.825180 -24.303361 -2.667823
LeftArm -20.143235 12.775572 -77.061895
LeftForeArm 7.838918 -0.000000 18.563935
LeftHand -4.107382 -0.000000 -1.269854
LeftHandThumb1 -26.253704 0.000000 33.147579
RightShoulder -4.358171 -10.057087 4.691784
RightArm 16.231265 -12.143749 64.136822
RightForeArm -27.639501 0.000000 30.245953
RightHand 0.789566 -0.000000 9.006479
RightHandThumb1 -24.326973 -0.000000 -32.862282
LeftUpLeg -2.372680 17.514745 17.596222
LeftLeg -4.538939 -0.000000 0.000000
LeftFoot -11.268106 24.017517 -18.977065
LeftToeBase 29.070617 -0.000000 -0.000000
RightUpLeg -35.878908 -20.553470 -8.633739
RightLeg 44.340777 -0.000000 -0.000000
RightFoot -31.253219 -14.631758 19.047365
RightToeBase 25.398758 -0.000000 -0.000000
223
root 24.905552 32.724164 -19.634539 -170.710329 4.751818 -182.443757
Spine -0.253180 -0.249886 0.415527
Head -8.019379 2.539269 -5.617970
LeftShoulder -8.758798 -24.287580 -2.604612
LeftArm -20.112177 13.466363 -77.475594
LeftForeArm 7.861536 0.000000 18.748093
LeftHand -4.051851 -0.000000 -1.229305
LeftHandThumb1 -26.253704 0.000000 33.147579
RightShoulder -4.388856 -10.105714 4.662934
RightArm 16.200287 -12.178510 64.297567
RightForeArm -27.695638 0.000000 30.364867
RightHand 0.738764 -0.000000 8.974441
RightHandThumb1 -24.326973 -0.000000 -32.862282
LeftUpLeg -2.278445 17.667365 17.698747
LeftLeg -4.671702 -0.000000 0.000000
LeftFoot -11.807402 24.169758 -18.978420
LeftToeBase 29.372604 -0.000000 -0.000000
RightUpLeg -35.757469 -20.972899 -8.384873
RightLeg 43.973257 -0.000000 -0.000000
RightFoot -30.911462 -13.984593 19.160901
RightToeBase 24.274792 -0.000000 -0.000000
224
root 24.800227 32.737794 -19.611411 -170.681608 4.891835 -182.175534
Spine -0.074958 -0.117969 0.652586
Head -8.134026 2.406958 -5.546217
LeftShoulder -8.679343 -24.228701 -2.505583
LeftArm -20.092611 14.139838 -77.914566
LeftForeArm 7.938226 -0.000000 18.973502
LeftHand -4.044299 0.000000 -1.150902
LeftHandThumb1 -26.253704 0.000000 33.147579
RightShoulder -4.408619 -10.203812 4.643810
RightArm 16.218592 -12.262401 64.411906
RightForeArm -27.813125 -0.000000 30.458367
RightHand 0.862311 -0.000000 8.919031
RightHandThumb1 -24.326973 -0.000000 -32.862282
LeftUpLeg -2.195307 17.841035 17.747813
LeftLeg -4.834868 -0.000000 0.000000
LeftFoot -12.282537 24.388799 -18.908536
LeftToeBase 29.645191 -0.000000 -0.000000
RightUpLeg -35.694017 -21.349070 -8.161414
RightLeg 43.628646 -0.000000 -0.000000
RightFoot -30.526291 -13.130214 19.585023
RightToeBase 22.902803 -0.000000 -0.000000
225
root 24.700052 32.754043 -19.592198 -170.642893 5.019352 -181.912274
Spine 0.077879 -0.001507 0.865196
Head -8.241973 2.283887 -5.430220
LeftShoulder -8.696595 -24.098438 -2.369482
LeftArm -19.954151 14.962349 -78.371298
LeftForeArm 7.867152 -0.000000 19.140459
LeftHand -3.992678 -0.000000 -1.018307
LeftHandThumb1 -26.253704 0.000000 33.147579
RightShoulder -4.357859 -10.202680 4.644601
RightArm 16.037190 -12.360489 64.538123
RightForeArm -27.957623 -0.000000 30.669492
RightHand 0.791116 -0.000000 8.890289
RightHandThumb1 -24.326973 -0.000000 -32.862282
LeftUpLeg -2.112297 18.061326 17.791732
LeftLeg -5.022961 -0.000000 0.000000
LeftFoot -12.724283 24.519570 -18.944471
LeftToeBase 29.850338 -0.000000 -0.000000
RightUpLeg -35.611878 -21.752300 -7.926183
RightLeg 43.262026 -0.000000 -0.000000
RightFoot -30.325871 -12.527354 19.668151
RightToeBase 22.152294 -0.000000 -0.000000
226
root 24.603714 32.771427 -19.572114 -170.621719 5.142857 -181.595574
Spine 0.257066 0.133449 1.151872
Head -8.358540 2.136811 -5.334293
LeftShoulder -8.679794 -24.051142 -2.247323
LeftArm -19.907267 15.788154 -78.860162
LeftForeArm 7.990827 -0.000000 19.281908
LeftHand -3.930897 0.000000 -0.975879
LeftHandThumb1 -26.253704 0.000000 33.147579
RightShoulder -4.373898 -10.301460 4.639043
RightArm 16.039945 -12.467466 64.618290
RightForeArm -28.273432 0.000000 30.835997
RightHand 0.797680 -0.000000 8.820552
RightHandThumb1 -24.326973 -0.000000 -32.862282
LeftUpLeg -2.007900 18.331874 17.902787
LeftLeg -5.199300 -0.000000 0.000000
LeftFoot -13.077182 24.569992 -18.774347
LeftToeBase 30.131141 -0.000000 -0.000000
RightUpLeg -35.500584 -22.174153 -7.625057
RightLeg 42.876582 -0.000000 -0.000000
RightFoot -30.063275 -11.844581 19.812772
RightToeBase 21.226513 -0.000000 -0.000000
